<?xml version="1.0" encoding="UTF-8" standalone="no"?>
<!DOCTYPE svg PUBLIC "-//W3C//DTD SVG 20010904//EN"
              "http://www.w3.org/TR/2001/REC-SVG-20010904/DTD/svg10.dtd">

<svg xmlns="http://www.w3.org/2000/svg"
     width="0.888889in" height="0.888889in"
     viewBox="0 0 64 64">
  <path id="Unnamed"
        fill="none" stroke="black" stroke-width="1" stroke-linejoin="round"
        d="M 32.00,2.00
           C 32.00,2.00 58.00,28.00 58.00,28.00
             58.00,28.00 58.00,36.00 58.00,36.00
             58.00,36.00 32.18,62.00 32.00,62.00
             31.82,62.00 6.00,36.00 6.00,36.00
             6.00,36.00 6.00,28.00 6.00,28.00
             6.00,28.00 32.00,2.00 32.00,2.00 Z
           M 58.00,36.00
           C 58.00,36.00 50.00,28.00 50.00,28.00
             50.00,28.00 32.00,36.00 32.00,36.00
             32.00,36.00 14.00,28.00 14.00,28.00
             14.00,28.00 6.00,36.00 6.00,36.00M 32.00,36.00
           C 32.00,36.00 32.00,62.00 32.00,62.00M 14.00,28.00
           C 14.00,28.00 32.00,2.00 32.00,2.00
             32.00,2.00 50.00,28.00 50.00,28.00
             50.00,28.00 32.00,36.00 32.00,36.00
             32.00,36.00 14.00,28.00 14.00,28.00 Z" />
</svg>
