<?xml version="1.0" encoding="UTF-8" standalone="no"?>
<!DOCTYPE svg PUBLIC "-//W3C//DTD SVG 20010904//EN"
              "http://www.w3.org/TR/2001/REC-SVG-20010904/DTD/svg10.dtd">

<svg xmlns="http://www.w3.org/2000/svg"
     width="0.888889in" height="0.888889in"
     viewBox="0 0 64 64">
  <path id="Unnamed"
        fill="none" stroke="black" stroke-width="1" stroke-linejoin="round"
        d="M 5.00,17.00
           C 5.00,17.00 32.00,1.00 32.00,1.00
             32.00,1.00 59.00,17.00 59.00,17.00
             59.00,17.00 59.00,47.00 59.00,47.00
             59.00,47.00 32.00,63.00 32.00,63.00
             32.00,63.00 5.00,47.00 5.00,47.00
             5.00,47.00 5.00,17.00 5.00,17.00 Z
           M 32.00,14.00
           C 32.00,14.00 48.00,42.00 48.00,42.00
             48.00,42.00 16.00,42.00 16.00,42.00
             16.00,42.00 32.00,14.00 32.00,14.00 Z
           M 48.00,42.00
           C 48.00,42.00 32.00,63.00 32.00,63.00
             32.00,63.00 16.00,42.00 16.00,42.00
             16.00,42.00 5.00,17.00 5.00,17.00
             5.00,17.00 32.00,14.00 32.00,14.00
             32.00,14.00 59.00,17.00 59.00,17.00
             59.00,17.00 48.00,42.00 48.00,42.00 Z
           M 48.00,42.00
           C 48.00,42.00 59.00,47.00 59.00,47.00M 16.00,42.00
           C 16.00,42.00 5.00,47.00 5.00,47.00M 32.00,14.00
           C 32.00,14.00 32.00,1.00 32.00,1.00" />
</svg>
