<?xml version="1.0" encoding="UTF-8" standalone="no"?>
<!DOCTYPE svg PUBLIC "-//W3C//DTD SVG 20010904//EN"
              "http://www.w3.org/TR/2001/REC-SVG-20010904/DTD/svg10.dtd">

<svg xmlns="http://www.w3.org/2000/svg"
     width="0.888889in" height="0.888889in"
     viewBox="0 0 64 64">
  <path id="Unnamed"
        fill="none" stroke="black" stroke-width="1" stroke-linejoin="round"
        d="M 32.00,10.00
           C 32.00,10.00 62.00,26.00 62.00,26.00
             62.00,26.00 58.00,40.00 58.00,40.00
             58.00,40.00 50.00,44.00 50.00,44.00
             50.00,44.00 32.00,54.00 32.00,54.00
             32.00,54.00 14.00,44.00 14.00,44.00
             14.00,44.00 6.00,40.00 6.00,40.00
             6.00,40.00 2.00,26.00 2.00,26.00
             2.00,26.00 32.00,10.00 32.00,10.00 Z
           M 14.00,44.00
           C 14.00,44.00 32.00,10.00 32.00,10.00
             32.00,10.00 50.00,44.00 50.00,44.00
             50.00,44.00 32.00,54.00 32.00,54.00
             32.00,54.00 14.00,44.00 14.00,44.00 Z" />
</svg>
