<svg xmlns="http://www.w3.org/2000/svg"
     width="64px" height="64px" stroke-linejoin="round"
     viewBox="0 0 64 64">
  <g fill="none" stroke="#000000" stroke-width="4">
  <path id="D10"
        d="M 32.00,10.00
           C 32.00,10.00 62.00,26.00 62.00,26.00
             62.00,26.00 58.00,40.00 58.00,40.00
             58.00,40.00 50.00,44.00 50.00,44.00
             50.00,44.00 32.00,54.00 32.00,54.00
             32.00,54.00 14.00,44.00 14.00,44.00
             14.00,44.00 6.00,40.00 6.00,40.00
             6.00,40.00 2.00,26.00 2.00,26.00
             2.00,26.00 32.00,10.00 32.00,10.00 Z
           M 14.00,44.00
           C 14.00,44.00 32.00,10.00 32.00,10.00
             32.00,10.00 50.00,44.00 50.00,44.00
             50.00,44.00 32.00,54.00 32.00,54.00
             32.00,54.00 14.00,44.00 14.00,44.00 Z" />
   </g>
</svg>
